<svg width="560" height="349" viewBox="0 0 560 349" fill="none" xmlns="http://www.w3.org/2000/svg">
<path d="M282.748 143.891V177.001H221.738L211.838 187.791H282.748V228.461H193.488V211.541H266.548L255.938 201.111H193.488V164.401H266.548L255.938 153.961H193.488V143.891H282.748Z" fill="black"/>
<path d="M151.38 143.891V228.641L150.84 229.181H45.0205L44.4805 228.641V144.431L45.0205 143.891H151.38ZM56.4405 207.151L67.0005 215.131L113.94 214.951C115.46 213.171 124.07 207.611 124.38 205.961L124.2 164.411L113.4 153.971L69.1205 153.941C68.4605 153.891 67.9605 154.071 67.3805 154.361C66.3905 154.871 57.8505 161.531 57.0605 162.401C56.7505 162.741 56.3805 162.981 56.3705 163.511L56.4405 207.151Z" fill="black"/>
<path d="M544.411 78.0303V88.8303H533.251V110.06H544.411V118.7H533.971L544.051 129.5H533.791L533.251 130.04V137.06H512.731V130.04L512.191 129.5H502.651L512.551 119.42L512.191 118.7H502.291V110.06H512.731V102.86H502.651L531.801 88.8203H485.731C485.521 89.3203 486.091 89.9003 486.091 90.0803V110.05H496.891V118.69H486.451L496.531 129.49H486.091V136.51L485.551 137.05H465.751L465.211 136.51V129.49H455.131L465.211 118.69H454.771V110.59L455.311 110.05H465.211V102.85H455.491L455.951 102.04L484.641 88.8203H445.771V228.64L445.231 229.18H436.051V78.0303H544.391H544.411Z" fill="black"/>
<path d="M413.4 228.82H361.21L390.72 215.86V154.68H369.48V165.12H382.44V192.83H369.48V202.19H382.44V210.29L337.09 228.82V202.19H350.05V192.83H337.09V165.12H350.05V154.68H337.45L355.63 144.24H412.86L413.4 144.78V228.81V228.82ZM350.06 172.32H345.74V185.64H350.06V172.32ZM374.17 185.63V172.85C373.13 171.79 371.24 172.5 369.85 172.31V185.63H374.17Z" fill="black"/>
<path d="M544.408 144.25V187.8L525.688 153.61H474.218L493.838 188.52H544.408V229.19H455.148V144.26H544.408V144.25ZM484.308 196.43L474.228 155.04V219.82H525.338V196.43H484.308Z" fill="black"/>
<path d="M413.398 78.0303V137.05H337.098V78.0303H413.398ZM363.728 89.1803H356.528V125.35L357.068 125.89H363.728V89.1803ZM379.208 89.1803H372.008V125.89H379.208V89.1803ZM394.688 89.1803H387.488V125.89H394.688V89.1803Z" fill="black"/>
<path d="M56.3605 126.25H129.78L92.3505 105.73L93.0605 104.47L109.51 91.0402L151.74 117.97V136.69H45.0205L44.4805 136.15V106.28L82.8905 73.7402L102.43 87.2202L56.3605 126.25Z" fill="black"/>
<path d="M330.259 78.0303V228.82H306.859V82.1603L310.999 78.0303H330.259Z" fill="black"/>
<path d="M545.85 242.5L545.52 247.02H29.34L29 242.5H545.85Z" fill="black"/>
<path d="M377.411 260.49L374.171 268.41H388.211L391.451 260.49H402.251L399.011 268.41H414.131V331.03H390.381V323.11H403.341V273.45H388.221V279.57H398.481L402.261 287.85H391.461L388.221 280.65V331.03H363.391V268.23C363.391 266.9 366.611 262.35 366.631 260.49H377.431H377.411ZM377.411 273.45H368.231L367.691 273.99V282.81H377.411V273.45ZM377.411 287.84H367.691V322.57L368.231 323.11H377.411V287.84Z" fill="black"/>
<path d="M271.59 260.49L267.63 268.4L283.11 268.76V287.83H257.92L249.44 305.84L283.12 331.02H266.74L244.79 314.82L237.05 331.02H226.25L236.68 309.24C236.68 308.72 236.29 308.48 235.98 308.16C233.9 305.98 229.37 303.87 227.07 301.62L226.61 300.79H240.83L247.13 287.83H232.37V268.4H257.2L260.98 260.48H271.6L271.59 260.49ZM254.32 273.81H237.04V282.81H250L254.32 273.81ZM272.31 273.81H264.75L260.79 282.81H272.31V273.81Z" fill="black"/>
<path d="M433.198 78.0303H422.758V229.18H433.198V78.0303Z" fill="black"/>
<path d="M304.338 84.8606V228.821L292.098 229.181V204.171L297.498 198.771V182.751C295.538 184.001 294.258 186.571 292.098 187.431V150.541L297.498 145.141V129.481L292.098 134.161V97.2706C295.278 93.9806 298.288 90.4906 301.448 87.1806C302.218 86.3706 303.258 85.0606 304.338 84.8506V84.8606Z" fill="black"/>
<path d="M174.41 222.7V164.76L187.73 159.18L174.41 152.34V121.57L187.51 128.09L188.11 129.29L188.09 216.4L187.52 217.27L174.41 222.7Z" fill="black"/>
<path d="M307.58 260.49V323.11H309.02V260.49H313.34V282.8H348.62V287.84H313.34V323.11H348.62V331.03H291.75V323.11H302.55V260.49H307.58Z" fill="black"/>
<path d="M152.098 291.44V306.92H123.848L119.348 311.96H152.098V331.03H110.348V323.11H144.538L139.678 318.07H110.348V301.16H144.538C144.768 300.31 144.318 300.55 144.078 300.34C142.548 298.99 141.088 297.6 139.678 296.12H110.348V291.44H152.098Z" fill="black"/>
<path d="M545.13 260.49V265.53H530.92L522.46 282.8H545.13V287.84H525.7L545.13 331.03H528.76L514.36 299.72L498.65 330.97L494.02 331.03L528.76 260.49H545.13Z" fill="black"/>
<path d="M86.588 291.08V331.03H36.918V291.08H86.588ZM47.628 296.21C46.508 297.05 42.558 299.48 42.328 300.63L42.658 321.16L47.188 324.55C53.868 324.05 61.528 325.23 68.078 324.58C69.608 324.43 73.798 321.31 74.008 319.72C74.738 314.19 73.438 307.06 73.978 301.35C73.798 300.4 69.498 296.25 68.428 296.1C62.218 295.27 54.038 296.68 47.618 296.21H47.628Z" fill="black"/>
<path d="M217.598 260.49V265.53H212.558V275.25H217.598V279.57H212.918L217.598 284.6H212.558V287.84H202.838L202.498 284.76L197.798 284.6L202.478 279.57H197.798V275.25H202.838V272.01L198.158 271.83L211.118 265.53H190.238V275.25H195.278V279.57H190.598L195.278 284.6H190.238V287.84H180.518V284.6H175.838C175.248 284.08 179.948 280.34 180.158 279.57L175.818 279.41C175.298 279.05 175.138 275.6 176.068 275.3L180.518 275.25V272.01C179.378 271.98 178.228 272.05 177.088 272.01C176.648 271.99 175.748 272.28 175.838 271.65L189.148 265.53H171.508V331.03H166.828V260.49H217.578H217.598Z" fill="black"/>
<path d="M189.17 291.08V323.11H190.61V291.08H201.41V300.8H217.42L217.96 301.34V306.74L217.42 307.28H201.41V323.11H217.24V331.03H174.41V323.11H180.53V291.08H189.17Z" fill="black"/>
<path d="M41.9588 143.891V228.641L41.4188 229.181H30.2588L29.7188 228.641V143.891H41.9588Z" fill="black"/>
<path d="M365.17 31.6006V67.2306H331.34V31.6006H365.17ZM340.34 57.8706H355.64L356.18 57.3306V41.8506L355.45 41.4606L340.35 48.1406V57.8606L340.34 57.8706Z" fill="black"/>
<path d="M388.21 23.6807V43.8407L397.74 31.6007H415.56L404.05 46.8807L415.56 67.2307H397.56L388.21 51.0307V67.2307H381.73V27.1007L388.21 23.6807Z" fill="black"/>
<path d="M494.378 31.6006V53.5506H472.058V58.7706L494.018 67.2306H461.988V31.6006H494.378ZM485.028 47.0706L472.068 38.0706V47.0706H485.028Z" fill="black"/>
<path d="M196.369 33.7598V67.2298H164.699V33.7598H196.369ZM188.089 43.1198L172.969 49.7798V58.2398H188.089V43.1198Z" fill="black"/>
<path d="M517.42 23.3203V43.4803L526.78 31.2403H544.77L533.33 46.5903L544.77 66.8703H527.32L517.42 50.6703V66.8703H511.66V26.3803L517.42 23.3203Z" fill="black"/>
<path d="M261.508 33.7598V38.7998L270.328 33.7598H284.908V67.2298H270.508V45.9998H261.508V67.2298H255.398V33.7598H261.508Z" fill="black"/>
<path d="M36.9202 273.271L54.7302 258.431L63.9102 265.001L42.6802 283.171H74.5302C74.7302 283.171 75.3202 282.641 75.7902 282.811L59.2302 273.271L67.0302 266.691L86.9402 279.391V287.851H36.9102V273.271H36.9202Z" fill="black"/>
<path d="M476.028 291.08L455.148 331.03H422.398V323.11H454.428L468.828 296.12H422.398V291.08H476.028Z" fill="black"/>
<path d="M98.8305 33.7598V67.2298H71.4805V45.9998H92.0005L91.9505 42.8098L71.8405 33.7598H98.8305ZM91.2705 61.8298C91.0805 60.5998 91.7005 58.2198 90.9105 57.3298L78.3105 51.7598V61.8398H91.2705V61.8298Z" fill="black"/>
<path d="M230.201 33.7598V67.2298H203.211V45.9998H223.371L223.311 42.8198L203.211 33.7698H230.201V33.7598ZM222.641 61.8298C222.451 60.6098 223.071 58.1998 222.291 57.3298C220.831 55.6998 212.251 53.5398 210.051 51.7598V61.8398H222.651L222.641 61.8298Z" fill="black"/>
<path d="M255.04 115.45V136.14L254.5 136.68H221.57V115.45H255.04ZM242.8 123.01H233.44V128.77H242.8V123.01Z" fill="black"/>
<path d="M160.738 228.46V170.52L171.528 166.2V223.96L160.738 228.46Z" fill="black"/>
<path d="M527.14 260.49L492.94 331.03H487.91L508.78 287.84H487.91V282.8H511.48L519.94 265.53H487.91V260.49H527.14Z" fill="black"/>
<path d="M334.939 21.8799V28.1799L334.399 28.7199H323.779V67.2299H313.699V21.8799H334.939Z" fill="black"/>
<path d="M74.7105 21.8799V28.1799L74.1705 28.7199H63.5605V67.2299H53.4805V21.8799H74.7105Z" fill="black"/>
<path d="M437.519 287.84V283.52L433.319 287.78L428.879 287.66L452.789 260.83L457.499 260.46L479.259 287.84H468.639L464.859 283.16V287.84H437.499H437.519ZM464.509 282.8L452.439 267.32L437.869 282.8H464.499H464.509Z" fill="black"/>
<path d="M310.819 21.8799V67.2299H300.749V28.7199H290.309L295.889 21.8799H310.819Z" fill="black"/>
<path d="M50.5981 21.8799V67.2299H40.5181V28.7199H30.0781L35.6581 21.8799H50.5981Z" fill="black"/>
<path d="M255.039 77.3105V90.8006L254.499 91.3405H221.559V77.3105H255.039Z" fill="black"/>
<path d="M255.039 96.0205V109.521L254.499 110.061H222.099L221.559 109.521V96.0205H255.039Z" fill="black"/>
<path d="M214.718 77.6699V109.7H193.848V97.6399L213.638 78.1999L214.718 77.6699Z" fill="black"/>
<path d="M282.75 109.7H262.23V77.6699L282.75 97.6399V109.7Z" fill="black"/>
<path d="M214.718 115.45V136.15L214.178 136.69H193.848V115.45H214.718Z" fill="black"/>
<path d="M282.747 115.45V136.15L282.207 136.69H261.867V115.45H282.747Z" fill="black"/>
<path d="M188.09 90.6206V121.571L174.41 115.091V84.1406L188.09 90.6206Z" fill="black"/>
<path d="M445.429 22.96V67.23H437.879V23.5L438.419 22.96H445.429Z" fill="black"/>
<path d="M171.528 82.3405V113.291L160.738 108.261V77.3105L171.528 82.3405Z" fill="black"/>
<path d="M171.53 150.72C171.11 151.15 161.9 146.29 160.73 145.5V115.09L171.53 120.31V150.72Z" fill="black"/>
<path d="M165.418 260.49H160.738V331.03H165.418V260.49Z" fill="black"/>
<path d="M455.509 22.96H448.309V67.23H455.509V22.96Z" fill="black"/>
<path d="M361.931 268.41V331.03H356.891V268.95C358.141 267.85 360.331 268.63 361.931 268.41Z" fill="black"/>
<path d="M41.9588 136.69H29.7188V118.51L41.9588 108.26V136.69Z" fill="black"/>
<path d="M508.778 66.8706H501.578V31.2406L508.778 27.6406V66.8706Z" fill="black"/>
<path d="M379.207 28.3604V67.2303H372.367V31.7803L379.207 28.3604Z" fill="black"/>
<path d="M239.919 33.7598H232.719V67.2298H239.919V33.7598Z" fill="black"/>
<path d="M102.43 328.15V300.8L107.47 298.82C107.63 298.07 107.15 298.33 106.76 298.11C105.44 297.36 103.88 296.59 102.43 296.13V281.73L107.83 284.07L108.21 285.13L108.19 325.1C107.95 326.34 103.58 327.22 102.43 328.15Z" fill="black"/>
<path d="M35.4788 291.08V331.03H29.7188V291.62L30.2588 291.08H35.4788Z" fill="black"/>
<path d="M124.738 33.7598H117.898V67.2298H124.738V33.7598Z" fill="black"/>
<path d="M134.457 33.7598H127.617V67.2298H134.457V33.7598Z" fill="black"/>
<path d="M108.191 33.7598H101.711V67.2298H108.191V33.7598Z" fill="black"/>
<path d="M252.877 33.7598H247.117V67.2298H252.877V33.7598Z" fill="black"/>
<path d="M479.63 291.08V296.3L460.85 330.97L456.23 331.03L477.7 291.14L479.63 291.08Z" fill="black"/>
<path d="M100.99 328.871L95.2305 331.03V304.22L100.99 301.521V328.871Z" fill="black"/>
<path d="M431.759 44.5605H415.559V53.9205H431.759V44.5605Z" fill="black"/>
<path d="M139.14 278.12V288.2H123.66V278.12H139.14ZM133.74 281.72H129.42V284.6L133.4 284.44C134 284.02 133.67 282.44 133.74 281.72Z" fill="black"/>
<path d="M157.5 46V54.45L156.96 54.99H142.56L142.02 54.45V46H157.5Z" fill="black"/>
<path d="M101.348 30.8805H93.0681L91.4481 27.6405L88.9281 30.8805H80.8281L85.8381 22.1205L96.3081 22.0605L101.348 30.8805Z" fill="black"/>
<path d="M190.61 30.8806H182.51L180.35 27.2806L178.19 30.8806H170.09L174.94 22.2406C175.86 21.4206 183.79 21.9906 185.57 22.0606L190.6 30.8806H190.61Z" fill="black"/>
<path d="M451.548 260.49L451.018 261.57L427.638 287.5L422.758 287.84L447.778 260.5L451.548 260.49Z" fill="black"/>
<path d="M134.458 22.2402V29.8002H117.898C119.678 27.0902 122.058 24.7102 124.198 22.2402H134.458Z" fill="black"/>
<path d="M120.421 275.61H110.711V269.67L120.421 260.49V275.61Z" fill="black"/>
<path d="M142.738 275.61V260.49L152.268 269.85C152.448 271.58 152.938 274.2 151.918 275.6H142.738V275.61Z" fill="black"/>
<path d="M139.14 269.13H123.66V275.61H139.14V269.13Z" fill="black"/>
<path d="M139.14 260.49H123.66V266.97H139.14V260.49Z" fill="black"/>
<path d="M120.431 278.12H110.711V288.2H120.431V278.12Z" fill="black"/>
<path d="M152.099 278.12V288.2H142.919L142.379 287.66V278.12H152.099Z" fill="black"/>
<path d="M230.918 268.41H226.238V287.84H230.918V268.41Z" fill="black"/>
<path d="M482.508 19V28.72H473.148V19.54L473.688 19H482.508Z" fill="black"/>
<path d="M351.859 19H342.859V28.72H351.859V19Z" fill="black"/>
<path d="M108.19 281L102.43 278.48V264.08C104.45 264.55 106.48 265.62 108.19 266.78V281Z" fill="black"/>
<path d="M100.99 280.64V295.04L95.2305 292.52V278.12L100.99 280.64Z" fill="black"/>
<path d="M100.99 263.01V277.41L95.2305 274.89V260.49L100.99 263.01Z" fill="black"/>
<path d="M35.4788 287.84H29.7188V279.38L35.4788 274.53V287.84Z" fill="black"/>
</svg>
