<?xml version="1.0" encoding="UTF-8"?>
<svg id="_圖層_1" data-name="圖層 1" xmlns="http://www.w3.org/2000/svg" viewBox="0 0 841.86 595.26">
  <polygon points="517.21 252.44 517.21 285.55 456.2 285.55 446.3 296.34 517.21 296.34 517.21 337.01 427.95 337.01 427.95 320.09 501.01 320.09 490.4 309.66 427.95 309.66 427.95 272.95 501.01 272.95 490.4 262.51 427.95 262.51 427.95 252.44 517.21 252.44"/>
  <path d="M385.84,252.44v84.75l-.54.54h-105.82l-.54-.54v-84.21l.54-.54h106.36ZM290.9,315.7l10.56,7.98,46.94-.18c1.52-1.78,10.13-7.34,10.44-8.99l-.18-41.55-10.8-10.44-44.28-.03c-.66-.05-1.16.13-1.74.42-.99.51-9.53,7.17-10.32,8.04-.31.34-.68.58-.69,1.11l.07,43.64Z"/>
  <path d="M778.87,186.58v10.8h-11.16v21.23h11.16v8.64h-10.44l10.08,10.8h-10.26l-.54.54v7.02h-20.52v-7.02l-.54-.54h-9.54l9.9-10.08-.36-.72h-9.9v-8.64h10.44v-7.2h-10.08l29.15-14.04h-46.07c-.21.5.36,1.08.36,1.26v19.97h10.8v8.64h-10.44l10.08,10.8h-10.44v7.02l-.54.54h-19.8l-.54-.54v-7.02h-10.08l10.08-10.8h-10.44v-8.1l.54-.54h9.9v-7.2h-9.72l.46-.81,28.69-13.22h-38.87v139.82l-.54.54h-9.18v-151.15h108.34Z"/>
  <path d="M647.86,337.37h-52.19l29.51-12.96v-61.18h-21.24v10.44h12.96v27.71h-12.96v9.36h12.96v8.1l-45.35,18.53v-26.63h12.96v-9.36h-12.96v-27.71h12.96v-10.44h-12.6l18.18-10.44h57.23l.54.54v84.03ZM584.52,280.87h-4.32v13.32h4.32v-13.32ZM608.63,294.18v-12.78c-1.04-1.06-2.93-.35-4.32-.54v13.32h4.32Z"/>
  <path d="M778.87,252.8v43.55l-18.72-34.19h-51.47l19.62,34.91h50.57v40.67h-89.26v-84.93h89.26ZM718.77,304.98l-10.08-41.39v64.78h51.11v-23.39h-41.03Z"/>
  <path d="M647.86,186.58v59.02h-76.3v-59.02h76.3ZM598.19,197.73h-7.2v36.17l.54.54h6.66v-36.71ZM613.67,197.73h-7.2v36.71h7.2v-36.71ZM629.15,197.73h-7.2v36.71h7.2v-36.71Z"/>
  <polygon points="290.82 234.8 364.24 234.8 326.81 214.28 327.52 213.02 343.97 199.59 386.2 226.52 386.2 245.24 279.48 245.24 278.94 244.7 278.94 214.83 317.35 182.29 336.89 195.77 290.82 234.8"/>
  <polygon points="564.72 186.58 564.72 337.37 541.32 337.37 541.32 190.71 545.46 186.58 564.72 186.58"/>
  <polygon points="780.31 351.05 779.98 355.57 263.8 355.57 263.46 351.05 780.31 351.05"/>
  <path d="M611.87,369.04l-3.24,7.92h14.04l3.24-7.92h10.8l-3.24,7.92h15.12v62.62h-23.75v-7.92h12.96v-49.66h-15.12v6.12h10.26l3.78,8.28h-10.8l-3.24-7.2v50.38h-24.83v-62.8c0-1.33,3.22-5.88,3.24-7.74h10.8ZM611.87,382h-9.18l-.54.54v8.82h9.72v-9.36ZM611.87,396.39h-9.72v34.73l.54.54h9.18v-35.27Z"/>
  <path d="M207.32,173.26v21.23h-39.05l-6.3,6.84h45.35v26.27h-57.23v-10.8h46.79c.16-.7-.25-.69-.61-1.01-2.08-1.89-4.12-3.78-6.05-5.82h-40.13v-23.39h46.79c.15-.61-.24-.72-.53-1.09-1.43-1.79-4.68-3.67-6.12-5.75h-40.13v-6.48h57.23Z"/>
  <path d="M207.32,70.33v54.7h-68.75v-54.7h68.75ZM153.94,76.88l-7.75,5.92.28,28.4,6.33,4.83,30.76-.18,6.15-5.01.33-26.65c0-.3-.19-.51-.33-.75-.22-.39-5.91-6.08-6.3-6.3-.35-.2-.65-.41-1.08-.36l-28.38.09Z"/>
  <path d="M207.32,335.57v6.84h-7.2v13.68h7.2v5.76h-6.84l6.84,6.84h-7.2v4.68h-13.32v-4.68h-6.48l6.48-6.84h-6.48v-5.76h6.48v-4.68h-6.12l18.36-9h-29.15v13.68h6.84v5.76h-6.48l6.48,6.84h-6.84v4.68h-13.32c-.21-1.49.54-3.53-.54-4.68h-6.3l6.48-6.84h-6.48v-5.76h6.84v-4.68h-6.48l18.36-9h-24.47v89.79l-.54.54h-5.4l-.54-.54v-96.63h69.83Z"/>
  <path d="M206.96,275.83v54.34h-33.47l19.08-8.82v-39.05h-13.68v6.84h8.28v17.99h-8.28v5.76h8.28v5.22l-29.15,12.06v-17.27h8.28v-5.76h-8.28v-17.99h8.28v-6.84h-7.92l11.34-6.48h37.25ZM166.28,293.82l-2.29.05-.54.54.29,7.89,2.54.16v-8.64ZM181.76,293.82h-2.88v8.1l.6.48,2.28.06v-8.64Z"/>
  <path d="M117.69,440.66v21.05c0,.21-1.39,2.96-1.62,3.77-2.76,9.83-2.08,24.32-2.32,34.75-.32,14.31-1.57,31.93,2.49,45.71.23.77,1.45,2.79,1.45,3.22v20.69c-5.5-.25-9.5-4.42-12.17-8.89-11.72-19.59-10.85-67.13-7.16-89.43,1.82-11.03,6.07-29.25,19.32-30.88Z"/>
  <path d="M119.13,569.86v-21.41c0-.28,1.67-4.13,1.92-5.28,1.99-9.09,1.44-20.95,1.66-30.37.39-16.42,1.35-32.92-2.85-48.94-.13-.48-.73-1.35-.73-1.43v-21.77c8.08.91,12.91,9.95,15.39,16.83,8,22.19,7.92,69.58,1.35,92.22-2.28,7.83-7.29,19.8-16.74,20.15Z"/>
  <rect x="113.02" y="26.06" width="4.68" height="408.12"/>
  <path d="M190.4,569.14v-20.87l1.45.57c2.88-3.5,4.06-8.51,4.33-12.97.58-9.51-.13-18.71-5.8-26.63l.1-50.32c3.77-6.68,8.41-12.83,13.44-18.6l10.16,13.79c-8.04,10.72-14.71,22.4-19.29,35.04,0,.77,5.28,5.49,6.24,6.58,10.29,11.69,13.08,25.5,12.05,40.85-.86,12.89-7.33,31.95-22.67,32.57Z"/>
  <path d="M207.32,378.04v28.07l-11.88-21.95h-33.11l12.42,22.31h32.57v26.27h-57.05l-.54-.54v-53.62l.54-.54h57.05ZM161.97,385.96v40.67h33.11v-14.76h-26.27c-2.49-8.08-3.59-17.05-6.08-25.07-.18-.59.3-1.01-.76-.84Z"/>
  <path d="M506.05,369.04l-3.96,7.91,15.48.36v19.07h-25.19l-8.48,18.01,33.68,25.18h-16.38l-21.95-16.2-7.74,16.2h-10.8l10.43-21.78c0-.52-.39-.76-.7-1.08-2.08-2.18-6.61-4.29-8.91-6.54l-.46-.83h14.22l6.3-12.96h-14.76v-19.43h24.83l3.78-7.92h10.62ZM488.78,382.36h-17.28v9h12.96l4.32-9ZM506.77,382.36h-7.56l-3.96,9h11.52v-9Z"/>
  <rect x="657.22" y="186.58" width="10.44" height="151.15"/>
  <path d="M206.96,233v38.15h-48.95v-38.15h48.95ZM170.6,263.95h4.63l-.11-23.75h-4.52v23.75ZM185,240.2h-4.32v23.75h4.32v-23.75ZM195.08,240.2h-4.68v23.75h4.68v-23.75Z"/>
  <path d="M538.8,193.41v143.96l-12.24.36v-25.01l5.4-5.4v-16.02c-1.96,1.25-3.24,3.82-5.4,4.68v-36.89l5.4-5.4v-15.66l-5.4,4.68v-36.89c3.18-3.29,6.19-6.78,9.35-10.09.77-.81,1.81-2.12,2.89-2.33Z"/>
  <path d="M153.69,330.17h-15.12v-94.11c0-.5,2.56-3.06,3.06-3.06h11.52l.54.54v96.63Z"/>
  <polygon points="146.13 59.17 193.28 59.17 169.16 45.85 180.2 36.56 207.68 54.32 207.68 65.65 138.57 65.65 138.57 46.04 163.28 25.4 176 34.16 146.13 59.17"/>
  <path d="M188.96,568.78c-12.41-2.54-17.13-17.35-18.96-28.36-3.9-23.49,4.67-53.21,15.9-73.85.84-1.54,1.78-3.59,3.06-4.67l.02,45.18c-2.51,10.16-3.92,21.14-2.08,31.56.26,1.47,2.06,6,2.06,6.58v23.57Z"/>
  <path d="M156.57,441.38v127.76h-19.08c2.3-11.27,5.17-22.49,7.39-33.82,3.57-18.28,9.28-46.48,8.11-64.63-.46-7.05-4.51-13.86-12.36-9.45-1.33.75-2.12,1.99-3.49,2.45v-16.02c5.16-5.67,11.75-8.59,19.44-6.3Z"/>
  <path d="M80.98,441.38v127.76h-19.08c1.64-8.39,3.88-16.72,5.65-25.12,4.3-20.4,11.27-53.43,9.85-73.68-.49-6.95-4.5-13.2-12.14-9.23-1.44.75-2.27,2.06-3.71,2.58v-16.02c5.16-5.67,11.75-8.59,19.44-6.3Z"/>
  <polygon points="408.87 331.25 408.87 273.31 422.19 267.73 408.87 260.89 408.87 230.12 421.97 236.64 422.57 237.84 422.55 324.95 421.98 325.82 408.87 331.25"/>
  <polygon points="542.04 369.04 542.04 431.66 543.48 431.66 543.48 369.04 547.8 369.04 547.8 391.35 583.08 391.35 583.08 396.39 547.8 396.39 547.8 431.66 583.08 431.66 583.08 439.58 526.21 439.58 526.21 431.66 537.01 431.66 537.01 369.04 542.04 369.04"/>
  <path d="M386.56,399.99v15.48h-28.25l-4.5,5.04h32.75v19.07h-41.75v-7.92h34.19l-4.86-5.04h-29.33v-16.91h34.19c.23-.85-.22-.61-.46-.82-1.53-1.35-2.99-2.74-4.4-4.22h-29.33v-4.68h41.75Z"/>
  <polygon points="779.59 369.04 779.59 374.08 765.38 374.08 756.92 391.35 779.59 391.35 779.59 396.39 760.16 396.39 779.59 439.58 763.22 439.58 748.82 408.27 733.11 439.52 728.48 439.58 763.22 369.04 779.59 369.04"/>
  <path d="M321.05,399.63v39.95h-49.67v-39.95h49.67ZM282.09,404.76c-1.12.84-5.07,3.27-5.3,4.42l.33,20.53,4.53,3.39c6.68-.5,14.34.68,20.89.03,1.53-.15,5.72-3.27,5.93-4.86.73-5.53-.57-12.66-.03-18.37-.18-.95-4.48-5.1-5.55-5.25-6.21-.83-14.39.58-20.81.11Z"/>
  <path d="M452.06,369.04v5.04h-5.04v9.72h5.04v4.32s-4.68,0-4.68,0l4.68,5.03h-5.04v3.24h-9.72l-.34-3.08-4.7-.16,4.68-5.03h-4.68s0-4.32,0-4.32h5.04v-3.24s-4.68-.18-4.68-.18l12.96-6.3h-20.88v9.72h5.04v4.32s-4.68,0-4.68,0l4.68,5.03h-5.04v3.24h-9.72v-3.24s-4.68,0-4.68,0c-.59-.52,4.11-4.26,4.32-5.03l-4.34-.16c-.52-.36-.68-3.81.25-4.11l4.45-.05v-3.24c-1.14-.03-2.29.04-3.43,0-.44-.02-1.34.27-1.25-.36l13.31-6.12h-17.64v65.5h-4.68v-70.54h50.75Z"/>
  <path d="M158.37,551.86h12.96v17.27h-12.78l-.54-.54v-126.14c3.52,1.09,6.74,4.77,8.46,7.91,8.19,14.89,1.28,52.17-1.74,69.17-1.92,10.81-4.38,21.53-6.37,32.32Z"/>
  <polygon points="423.63 399.63 423.63 431.66 425.07 431.66 425.07 399.63 435.87 399.63 435.87 409.35 451.88 409.35 452.42 409.89 452.42 415.29 451.88 415.83 435.87 415.83 435.87 431.66 451.7 431.66 451.7 439.58 408.87 439.58 408.87 431.66 414.99 431.66 414.99 399.63 423.63 399.63"/>
  <polygon points="276.42 252.44 276.42 337.19 275.88 337.73 264.72 337.73 264.18 337.19 264.18 252.44 276.42 252.44"/>
  <path d="M75.58,283.03l-1.8,5.4h8.82l2.34-5.4h7.2l-1.8,5.4h10.08v41.21l-.54.54h-15.66v-5.4h8.46l.54-.54v-32.03l-.54-.54h-9.36c-1.02.95-.38,2.67-.54,3.96h7.02l2.34,5.76h-6.66l-2.7-4.68v33.47h-16.56v-41.93c0-.29,2.22-4.6,2.7-5.22h6.66ZM75.58,291.66h-6.12v6.12h5.94c1.31-1.68.12-4.19.18-6.12ZM75.58,301.38h-6.12v23.39h6.12v-23.39Z"/>
  <path d="M599.63,140.15v35.63h-33.83v-35.63h33.83ZM574.8,166.42h15.3l.54-.54v-15.48l-.73-.39-15.1,6.68v9.72Z"/>
  <polygon points="622.67 132.23 622.67 152.39 632.2 140.15 650.02 140.15 638.51 155.43 650.02 175.78 632.02 175.78 622.67 159.58 622.67 175.78 616.19 175.78 616.19 135.65 622.67 132.23"/>
  <path d="M82.42,442.46c4.26,1.39,7.86,6,9.53,10.08,6.68,16.36.04,51.39-3.17,69.16-1.64,9.08-3.31,20.03-5.76,28.8-.1.38-.09,1.09-.61,1.01v-109.05Z"/>
  <path d="M728.84,140.15v21.95h-22.32v5.22l21.96,8.46h-32.03v-35.63h32.39ZM719.49,155.62l-12.96-9v9h12.96Z"/>
  <path d="M430.83,142.31v33.47h-31.67v-33.47h31.67ZM422.55,151.67l-15.12,6.66v8.46h15.12v-15.12Z"/>
  <polygon points="751.88 131.87 751.88 152.03 761.24 139.79 779.23 139.79 767.79 155.14 779.23 175.42 761.78 175.42 751.88 159.22 751.88 175.42 746.12 175.42 746.12 134.93 751.88 131.87"/>
  <polygon points="495.97 142.31 495.97 147.35 504.79 142.31 519.37 142.31 519.37 175.78 504.97 175.78 504.97 154.55 495.97 154.55 495.97 175.78 489.86 175.78 489.86 142.31 495.97 142.31"/>
  <path d="M92.5,180.46l-2.52,5.4h10.08v12.96h-16.38l-5.89,12.18,22.26,16.61h-10.62l-14.76-10.79-5.22,10.79h-7.2l6.83-14.59c.03-.44-.27-.62-.52-.9-1.57-1.69-4.76-2.79-6.31-4.67h9.54l4.5-8.64h-10.08v-12.96h16.56l2.7-5.4h7.02ZM80.62,189.45h-11.16v5.76h8.64l2.52-5.76ZM92.86,189.45h-5.04l-2.52,5.76h7.56v-5.76Z"/>
  <path d="M271.38,381.82l17.81-14.84,9.18,6.57-21.23,18.17h31.85c.2,0,.79-.53,1.26-.36l-16.56-9.54,7.8-6.58,19.91,12.7v8.46h-50.03v-14.58Z"/>
  <polygon points="710.49 399.63 689.61 439.58 656.86 439.58 656.86 431.66 688.89 431.66 703.29 404.67 656.86 404.67 656.86 399.63 710.49 399.63"/>
  <path d="M333.29,142.31v33.47h-27.35v-21.23h20.52l-.05-3.19-20.11-9.05h26.99ZM325.73,170.38c-.19-1.23.43-3.61-.36-4.5l-12.6-5.57v10.08h12.96Z"/>
  <polygon points="136.05 335.57 136.05 432.2 135.51 432.74 129.21 432.74 129.21 335.57 136.05 335.57"/>
  <path d="M464.66,142.31v33.47h-26.99v-21.23h20.16l-.06-3.18-20.1-9.05h26.99ZM457.1,170.38c-.19-1.22.43-3.63-.35-4.5-1.46-1.63-10.04-3.79-12.24-5.57v10.08h12.6Z"/>
  <path d="M489.5,224v20.69l-.54.54h-32.93v-21.23h33.47ZM477.26,231.56h-9.36v5.76h9.36v-5.76Z"/>
  <polygon points="395.2 337.01 395.2 279.07 405.99 274.75 405.99 332.51 395.2 337.01"/>
  <polygon points="761.6 369.04 727.4 439.58 722.37 439.58 743.24 396.39 722.37 396.39 722.37 391.35 745.94 391.35 754.4 374.08 722.37 374.08 722.37 369.04 761.6 369.04"/>
  <polygon points="136.77 330.17 129.21 330.17 129.21 314.16 132.45 310.92 132.45 300.66 129.21 303.54 129.21 279.61 132.45 276.73 132.45 266.47 129.21 268.99 129.21 245.42 136.77 237.68 136.77 330.17"/>
  <polygon points="72.7 231.56 72.7 273.31 73.78 273.31 73.78 231.56 76.66 231.56 76.66 246.68 100.42 246.68 100.42 249.92 77.2 249.92 76.66 250.46 76.66 273.31 100.06 273.31 100.06 278.71 62.27 278.71 62.27 273.31 69.47 273.31 69.47 231.56 72.7 231.56"/>
  <polygon points="100.06 98.4 100.06 108.84 81.52 108.84 78.46 112.08 100.06 112.08 100.06 125.03 72.34 125.03 72.34 119.64 95.02 119.64 91.6 116.4 72.34 116.4 72.34 104.88 95.02 104.88 91.6 101.64 72.34 101.64 72.34 98.4 100.06 98.4"/>
  <polygon points="569.4 130.43 569.4 136.73 568.86 137.27 558.24 137.27 558.24 175.78 548.16 175.78 548.16 130.43 569.4 130.43"/>
  <polygon points="309.17 130.43 309.17 136.73 308.63 137.27 298.02 137.27 298.02 175.78 287.94 175.78 287.94 130.43 309.17 130.43"/>
  <path d="M671.98,396.39v-4.32s-4.2,4.26-4.2,4.26l-4.44-.12,23.91-26.83,4.71-.37,21.76,27.38h-10.62l-3.78-4.68v4.68h-27.36ZM698.97,391.35l-12.07-15.48-14.57,15.48h26.63Z"/>
  <path d="M89.8,432.74l-9.9-20.87-.8.46-9.81,20.05c-.44.46-3.34.79-3.06-.17l22.84-46.63c.86-.88,9.16.55,10.99,0v3.24h-9.18l-5.58,11.52h14.76v3.6h-12.6l12.6,28.79h-10.26Z"/>
  <path d="M100.06,128.99v3.6s-3.24,0-3.24,0v6.48h3.24s0,2.88,0,2.88h-2.88s2.88,3.23,2.88,3.23h-3.24s-.34,2.37-.34,2.37l-6.14.16-.34-2.36-2.9-.16,2.88-3.23h-2.88s0-2.88,0-2.88l3.25-.21v-1.95s-3.24-.35-3.24-.35l8.64-3.96h-13.68v6.48h3.24s0,2.88,0,2.88l-2.88.18,2.88,3.05h-3.24s-.34,2.37-.34,2.37l-5.91.11c-.9-.3-.54-1.69-.59-2.47h-2.88s2.88-3.23,2.88-3.23l-2.9-.16c-2.06-3.63,2.84-2.44,2.91-2.93v-1.96s-2.88-.35-2.88-.35l8.64-3.96h-11.52v43.55h-3.24v-47.15h33.83Z"/>
  <polygon points="545.28 130.43 545.28 175.78 535.21 175.78 535.21 137.27 524.77 137.27 530.35 130.43 545.28 130.43"/>
  <polygon points="285.06 130.43 285.06 175.78 274.98 175.78 274.98 137.27 264.54 137.27 270.12 130.43 285.06 130.43"/>
  <path d="M100.06,47.3v26.63h-33.11v-26.63h33.11ZM74.04,50.61c-.84.19-3.32,2.12-3.48,2.99-.35,1.85-.28,10.57-.03,12.61.13,1.1,2.39,2.84,3.46,3.02,1.62.26,13.78.2,14.82-.25.88-.38,2.85-2.15,2.99-3.13.24-1.77.28-10.26-.03-11.89-.19-.97-2.71-3.31-3.75-3.45-1.98-.26-12.26-.3-13.98.09Z"/>
  <polygon points="137.85 159.22 146.5 163.42 146.44 220.18 137.85 224 137.85 187.12 146.13 183.33 137.85 179.02 137.85 159.22"/>
  <path d="M81.34,149.51v21.23h.72v-21.23h7.2v6.48h10.62c1.06,1.04.35,2.93.54,4.32h-11.16v10.26l.54.54h10.26c-.24,1.71.58,4.05-.54,5.4h-28.25v-5.4h3.96v-21.05l.54-.54h5.58Z"/>
  <polygon points="489.5 185.86 489.5 199.35 488.96 199.89 456.02 199.89 456.02 185.86 489.5 185.86"/>
  <polygon points="489.5 204.57 489.5 218.07 488.96 218.61 456.56 218.61 456.02 218.07 456.02 204.57 489.5 204.57"/>
  <polygon points="449.18 186.22 449.18 218.25 428.31 218.25 428.31 206.19 448.1 186.75 449.18 186.22"/>
  <polygon points="517.21 218.25 496.69 218.25 496.69 186.22 517.21 206.19 517.21 218.25"/>
  <polygon points="449.18 224 449.18 244.7 448.64 245.24 428.31 245.24 428.31 224 449.18 224"/>
  <polygon points="517.21 224 517.21 244.7 516.67 245.24 496.33 245.24 496.33 224 517.21 224"/>
  <polygon points="422.55 199.17 422.55 230.12 408.87 223.64 408.87 192.69 422.55 199.17"/>
  <rect x="129.21" y="70.33" width="7.56" height="54.7"/>
  <path d="M70.9,41.54h21.96l-11.16-6.12,5.28-4.6c1.64.93,13.43,7.94,13.43,8.74v5.22h-33.47v-9.54l11.76-9.82,6.23,4.07-14.03,12.06Z"/>
  <polygon points="679.89 131.51 679.89 175.78 672.34 175.78 672.34 132.05 672.88 131.51 679.89 131.51"/>
  <polygon points="405.99 190.89 405.99 221.84 395.2 216.81 395.2 185.86 405.99 190.89"/>
  <path d="M405.99,259.27c-.42.43-9.63-4.43-10.8-5.22v-30.41l10.8,5.22v30.41Z"/>
  <rect x="395.2" y="369.04" width="4.68" height="70.54"/>
  <rect x="682.77" y="131.51" width="7.2" height="44.27"/>
  <path d="M596.39,376.96v62.62h-5.04v-62.08c1.25-1.1,3.44-.32,5.04-.54Z"/>
  <polygon points="97.9 354.64 83.68 381.28 62.27 381.28 62.27 375.88 83.32 375.88 92.86 358.24 62.27 358.24 62.27 354.64 97.9 354.64"/>
  <polygon points="276.42 245.24 264.18 245.24 264.18 227.06 276.42 216.81 276.42 245.24"/>
  <path d="M62.27,388.83v-3.24s26.27-.35,26.27-.35l-22.73,46.55c-.68,1.4-2.24.9-3.54.95l13.68-28.79h-13.68v-3.6h15.84l5.4-11.52h-21.24Z"/>
  <path d="M189.68,154.9v13.68h-21.6v-13.68h21.6ZM181.76,159.94h-5.76v3.6h5.76v-3.6Z"/>
  <polygon points="743.24 175.42 736.04 175.42 736.04 139.79 743.24 136.19 743.24 175.42"/>
  <polygon points="613.67 136.91 613.67 175.78 606.83 175.78 606.83 140.33 613.67 136.91"/>
  <polygon points="136.05 187.65 136.05 225.08 129.21 227.6 129.21 190.17 136.05 187.65"/>
  <rect x="467.18" y="142.31" width="7.2" height="33.47"/>
  <path d="M336.89,436.7v-27.35l5.04-1.98c.16-.75-.32-.49-.71-.71-1.32-.75-2.88-1.52-4.33-1.98v-14.4l5.4,2.34.38,1.06-.02,39.97c-.24,1.24-4.61,2.12-5.76,3.05Z"/>
  <path d="M72.34,352.49v-2.88c-2.04,1.55-2.71,3.57-5.76,2.88l15.84-18.17,3.07-.21,14.56,18.38h-7.02l-2.7-2.88v2.88h-18ZM72.7,349.25h17.64l-8.1-10.44-9.53,10.44Z"/>
  <polygon points="269.94 399.63 269.94 439.58 264.18 439.58 264.18 400.17 264.72 399.63 269.94 399.63"/>
  <polygon points="95.74 551.86 95.74 569.14 82.96 569.14 82.42 568.6 82.42 551.86 95.74 551.86"/>
  <rect x="352.36" y="142.31" width="6.84" height="33.47"/>
  <rect x="362.08" y="142.31" width="6.84" height="33.47"/>
  <rect x="336.17" y="142.31" width="6.48" height="33.47"/>
  <polygon points="189.68 139.43 168.08 139.43 168.08 130.43 189.14 130.43 189.68 130.97 189.68 139.43"/>
  <polygon points="189.68 142.67 189.68 151.13 189.14 151.67 168.62 151.67 168.08 151.13 168.08 142.67 189.68 142.67"/>
  <rect x="481.58" y="142.31" width="5.76" height="33.47"/>
  <path d="M207.32,151.31h-13.32v-20.51c.63-.16.72.26,1.08.54,4.18,3.2,8.06,8.8,12.23,12.24v7.74Z"/>
  <path d="M163.76,151.31h-13.32v-7.74c4.49-4.19,8.43-9.07,13.32-12.78v20.51Z"/>
  <rect x="150.45" y="154.9" width="13.32" height="13.68"/>
  <rect x="194" y="154.9" width="13.32" height="13.68"/>
  <polygon points="714.09 399.63 714.09 404.85 695.31 439.52 690.69 439.58 712.16 399.69 714.09 399.63"/>
  <polygon points="146.49 158.86 137.85 154.9 137.85 134.75 146.49 139.25 146.49 158.86"/>
  <polygon points="335.45 437.42 329.69 439.58 329.69 412.77 335.45 410.07 335.45 437.42"/>
  <rect x="62.27" y="128.99" width="3.24" height="47.15"/>
  <rect x="650.02" y="153.11" width="16.2" height="9.36"/>
  <path d="M373.6,386.67v10.08h-15.48v-10.08h15.48ZM368.2,390.27h-4.32s0,2.88,0,2.88l3.98-.16c.6-.42.27-2,.34-2.72Z"/>
  <polygon points="391.96 154.55 391.96 163 391.42 163.54 377.02 163.54 376.48 163 376.48 154.55 391.96 154.55"/>
  <polygon points="136.05 153.47 129.21 150.59 129.21 130.43 136.05 134.21 136.05 153.47"/>
  <polygon points="136.05 177.94 129.21 174.52 129.21 154.9 136.05 158.32 136.05 177.94"/>
  <rect x="62.27" y="288.42" width="3.24" height="41.75"/>
  <polygon points="335.81 139.43 327.53 139.43 325.91 136.19 323.39 139.43 315.29 139.43 320.3 130.67 330.77 130.61 335.81 139.43"/>
  <path d="M425.07,139.43h-8.1l-2.16-3.6-2.16,3.6h-8.1l4.85-8.64c.92-.82,8.85-.25,10.63-.18l5.03,8.82Z"/>
  <polygon points="686.01 369.04 685.48 370.12 662.1 396.05 657.22 396.39 682.24 369.05 686.01 369.04"/>
  <polygon points="136.77 65.65 129.21 65.65 129.21 53.96 136.77 47.66 136.77 65.65"/>
  <path d="M66.95,91.92c1.11.77,3.67,1.25,3.95,2.71l-.22,26.84-3.74,1.4v-17.81l3.24-1.98-3.24-1.62v-9.54Z"/>
  <path d="M368.92,130.79v7.56h-16.56c1.78-2.71,4.16-5.09,6.3-7.56h10.26Z"/>
  <polygon points="354.88 384.16 345.17 384.16 345.17 378.22 354.88 369.04 354.88 384.16"/>
  <path d="M377.2,384.16v-15.12l9.53,9.36c.18,1.73.67,4.35-.35,5.75h-9.18Z"/>
  <rect x="358.12" y="377.68" width="15.48" height="6.48"/>
  <rect x="358.12" y="369.04" width="15.48" height="6.48"/>
  <rect x="345.17" y="386.67" width="9.72" height="10.08"/>
  <polygon points="386.56 386.67 386.56 396.75 377.38 396.75 376.84 396.21 376.84 386.67 386.56 386.67"/>
  <rect x="62.27" y="47.3" width="3.6" height="26.63"/>
  <rect x="460.7" y="376.96" width="4.68" height="19.43"/>
  <polygon points="716.97 127.55 716.97 137.27 707.61 137.27 707.61 128.09 708.15 127.55 716.97 127.55"/>
  <rect x="577.32" y="127.55" width="9" height="9.72"/>
  <path d="M342.65,389.55l-5.76-2.52v-14.4c2.02.47,4.05,1.54,5.76,2.7v14.22Z"/>
  <polygon points="335.45 389.19 335.45 403.59 329.69 401.07 329.69 386.67 335.45 389.19"/>
  <polygon points="335.45 371.56 335.45 385.96 329.69 383.44 329.69 369.04 335.45 371.56"/>
  <path d="M100.42,354.64l-.2,3.58-12.08,22.48c-.76,1.06-2.4.43-3.56.57l14.09-26.57,1.74-.06Z"/>
  <polygon points="66.23 105.6 66.23 123.05 62.27 125.03 62.27 106.68 66.23 105.6"/>
  <polygon points="269.94 396.39 264.18 396.39 264.18 387.93 269.94 383.08 269.94 396.39"/>
  <path d="M91.42,89.76v6.48h-10.44v-6.48h10.44ZM87.82,92.29h-2.88c-.31,1.91.93,2.13,2.54,1.64l.34-1.64Z"/>
  <polygon points="81.7 334.13 65.71 352.14 62.27 352.48 78.62 334.47 81.7 334.13"/>
  <path d="M93.58,78.25c.63-.16.72.26,1.08.54,1.86,1.43,3.32,3.86,5.42,5.11l.34,4.07h-6.84v-9.72Z"/>
  <rect x="80.98" y="83.65" width="10.44" height="4.32"/>
  <rect x="80.98" y="77.89" width="10.44" height="4.32"/>
  <path d="M78.82,87.97h-6.48c.14-1.19-.31-2.87.19-3.95.6-1.31,5.19-4.26,6.29-5.76v9.72Z"/>
  <rect x="93.58" y="89.76" width="6.48" height="6.48"/>
  <rect x="72.34" y="89.76" width="6.48" height="6.48"/>
  <rect x="62.27" y="185.86" width="3.24" height="12.96"/>
  <polygon points="66.23 100.92 62.27 99.48 62.27 89.76 66.23 91.74 66.23 100.92"/>
  <path d="M66.23,79.69v9.36c-1.44.1-2.84-.77-3.96-1.62v-9.54l3.96,1.8Z"/>
  <path d="M70.9,91.56l-3.96-1.98v-9.18c1.34.45,2.99.98,3.96,1.98v9.18Z"/>
  <polygon points="65.87 44.78 62.27 44.78 62.27 39.2 65.87 36.14 65.87 44.78"/>
</svg>